<svg width="163" height="65" viewBox="0 0 163 65" fill="none" xmlns="http://www.w3.org/2000/svg">
<g filter="url(#filter0_d_27_2689)">
<path d="M50.0813 28.0938C50.1354 27.8203 50.1715 27.6016 50.1896 27.4375C50.2076 27.2552 50.1444 27.0638 50 26.8632C50.0722 26.5716 50.1265 26.3438 50.1625 26.1797C50.2166 26.0156 50.2257 25.7877 50.1896 25.4961C50.3521 25.0221 50.5958 24.6211 50.9207 24.293C51.2637 23.9648 51.6338 23.6914 52.031 23.4727C52.4283 23.2357 52.8434 23.0443 53.2767 22.8984C53.7099 22.7344 54.1162 22.5976 54.4953 22.4883C54.4953 22.4154 54.4592 22.3789 54.387 22.3789C54.3148 22.3789 54.2967 22.3333 54.3328 22.2421C55.3077 22.0599 56.2826 21.7956 57.2575 21.4492C58.2504 21.1029 59.2613 20.793 60.2904 20.5196C61.3194 20.2461 62.3755 20.082 63.4587 20.0273C64.542 19.9544 65.6793 20.0912 66.8708 20.4375C66.9431 20.6562 67.0423 20.8659 67.1687 21.0664C67.2951 21.2669 67.4214 21.4674 67.5478 21.668C67.6922 21.8502 67.8187 22.0326 67.9269 22.2148C68.0353 22.3971 68.0985 22.5885 68.1165 22.789C68.3331 22.9896 68.5047 23.2084 68.631 23.4453C68.7754 23.6641 68.8025 23.9648 68.7122 24.3476C68.5137 24.4934 68.306 24.6393 68.0894 24.7852C67.8728 24.931 67.6472 25.0677 67.4125 25.1953C66.6 24.9948 65.7876 24.9218 64.9752 24.9766C64.1629 25.0313 63.4317 25.095 62.7818 25.168C62.5831 24.9492 62.3484 24.8489 62.0777 24.8672C61.8069 24.8672 61.518 24.9128 61.2111 25.0039C60.9222 25.0768 60.6334 25.1588 60.3446 25.25C60.0557 25.3229 59.7849 25.3412 59.5322 25.3047C59.3335 25.487 59.0718 25.6146 58.7469 25.6875C58.4219 25.7421 58.0789 25.7877 57.7178 25.8242C57.6998 25.9154 57.7178 25.9791 57.772 26.0156C57.8261 26.052 57.8351 26.1249 57.7991 26.2344C57.9254 26.3984 58.0969 26.5169 58.3135 26.5899C58.5303 26.6445 58.7469 26.6992 58.9635 26.7539C59.1982 26.8086 59.4057 26.8906 59.5863 27C59.7669 27.0912 59.8843 27.2461 59.9384 27.4648C60.2634 27.4831 60.5431 27.5742 60.7778 27.7383C61.0125 27.8841 61.2111 28.0664 61.3736 28.2852C61.5361 28.5039 61.6534 28.7409 61.7256 28.9961C61.7978 29.2331 61.8249 29.4518 61.8069 29.6524C61.8791 29.8346 61.9513 29.9075 62.0236 29.8711C62.1137 29.8346 62.2131 29.8802 62.3214 30.0078C62.3936 30.2813 62.5561 30.5729 62.8089 30.8828C63.0796 31.1745 63.2873 31.4934 63.4317 31.8399C63.4677 32.3868 63.4949 32.8789 63.5129 33.3164C63.549 33.7539 63.4768 34.1823 63.2962 34.6015C62.9893 35.4037 62.5471 36.1237 61.9693 36.7617C61.3916 37.3998 60.7327 37.9648 59.9925 38.457C59.2704 38.931 58.5031 39.3502 57.6907 39.7148C56.8783 40.0612 56.0749 40.3529 55.2807 40.5899C55.2084 40.5716 55.1182 40.5716 55.0098 40.5899C54.9195 40.6081 54.9015 40.5533 54.9557 40.4258C54.7932 40.5716 54.6036 40.6628 54.387 40.6992C54.1884 40.7357 53.9627 40.7448 53.7099 40.7266C53.4753 40.7266 53.2315 40.7174 52.9789 40.6992C52.7441 40.681 52.5094 40.6901 52.2747 40.7266C52.1303 40.5807 51.9949 40.4348 51.8685 40.289C51.7602 40.1432 51.67 39.97 51.5978 39.7696C51.5075 39.7513 51.4624 39.6967 51.4624 39.6055C51.4804 39.4961 51.4443 39.4414 51.354 39.4414C51.354 39.3685 51.3631 39.3138 51.3811 39.2773C51.3991 39.2409 51.4172 39.2044 51.4353 39.168C51.5075 39.1132 51.5346 39.0768 51.5165 39.0586C51.5165 39.0221 51.4894 38.9948 51.4353 38.9766C51.3991 38.9401 51.354 38.9037 51.2999 38.8672C51.2637 38.8307 51.2547 38.7852 51.2728 38.7304C51.3631 38.5664 51.3902 38.3749 51.354 38.1562C51.3359 37.9192 51.3179 37.6823 51.2999 37.4453C51.2818 37.2084 51.2999 36.9896 51.354 36.789C51.4082 36.5703 51.5616 36.3881 51.8144 36.2421C52.5546 36.3152 53.2496 36.2786 53.8995 36.1328C54.5676 35.987 55.1904 35.7864 55.768 35.5313C56.3638 35.276 56.9235 35.0026 57.447 34.711C57.9886 34.4011 58.5122 34.1185 59.0176 33.8632C59.0718 33.681 59.1531 33.526 59.2613 33.3984C59.3878 33.2709 59.5141 33.1524 59.6404 33.043C59.7669 32.9154 59.8843 32.7877 59.9925 32.6601C60.1009 32.5143 60.1821 32.3412 60.2362 32.1406C60.2543 32.0677 60.2543 32.013 60.2362 31.9766C60.2182 31.9401 60.1911 31.9128 60.155 31.8945C60.1188 31.8581 60.0828 31.8216 60.0466 31.7852C60.0106 31.7487 59.9925 31.694 59.9925 31.6211C59.9384 31.6029 59.8843 31.5846 59.83 31.5664C59.794 31.5482 59.7578 31.539 59.7218 31.539C59.2523 31.302 58.7559 31.1015 58.2323 30.9375C57.7088 30.7734 57.2664 30.5912 56.9054 30.3906C56.6888 30.5364 56.4722 30.5729 56.2555 30.5C56.0389 30.4271 55.7771 30.3542 55.4702 30.2813C54.712 30.2448 53.9898 30.1718 53.3037 30.0625C52.6358 29.9531 51.9859 29.7617 51.354 29.4883C51.3179 29.3789 51.2728 29.2877 51.2187 29.2148C51.1644 29.1237 51.0381 29.0963 50.8396 29.1328C50.7131 28.9505 50.5778 28.7864 50.4333 28.6406C50.3069 28.4766 50.1896 28.2943 50.0813 28.0938ZM67.1373 40.7539C66.8846 40.5899 66.6859 40.3802 66.5415 40.1249C66.379 39.8698 66.2527 39.5963 66.1624 39.3047C66.0541 39.013 65.9728 38.7123 65.9187 38.4024C65.8465 38.0742 65.7743 37.7643 65.7021 37.4727C65.7021 37.2174 65.7562 37.0352 65.8646 36.9258C65.9728 36.7982 66.0902 36.6797 66.2165 36.5703C66.6499 36.552 67.038 36.5156 67.381 36.461C67.724 36.4062 68.058 36.3516 68.383 36.2969C68.7079 36.2421 69.0329 36.1967 69.3579 36.1601C69.6828 36.1055 70.0348 36.0782 70.4139 36.0782C70.6848 35.513 70.9375 34.9753 71.1722 34.4648C71.4069 33.9362 71.6326 33.4348 71.8492 32.961C71.9575 32.5052 72.0929 32.0859 72.2554 31.7031C72.4359 31.302 72.6075 30.9284 72.7699 30.582C72.9324 30.2174 73.0768 29.8619 73.2032 29.5156C73.3296 29.1511 73.4108 28.7683 73.4469 28.3672C73.6635 27.7291 73.8531 27.1458 74.0156 26.6172C74.1962 26.0703 74.3315 25.4232 74.4218 24.6758C73.7358 24.7852 73.1852 24.8945 72.7699 25.0039C72.3547 25.095 72.0568 25.1862 71.8763 25.2773C71.5153 25.2591 71.2263 25.1862 71.0097 25.0586C70.8111 24.931 70.6486 24.776 70.5223 24.5938C70.3959 24.4115 70.2876 24.2018 70.1973 23.9648C70.107 23.7278 69.9988 23.4817 69.8723 23.2266C69.9445 23.0625 69.9626 22.8255 69.9266 22.5156C69.8904 22.1875 69.7821 21.9505 69.6016 21.8047C69.746 21.7683 69.8544 21.6498 69.9266 21.4492C69.9988 21.2304 70.0078 21.0664 69.9536 20.957C70.2605 20.8659 70.5854 20.8112 70.9285 20.793C71.2715 20.7566 71.6054 20.7291 71.9304 20.711C72.2735 20.6745 72.5984 20.6381 72.9053 20.6016C73.2122 20.5469 73.474 20.4467 73.6906 20.3007C74.6294 20.2643 75.6043 20.2278 76.6152 20.1914C77.6443 20.1549 78.5921 20.1094 79.4586 20.0547C79.7836 20.1641 80.1537 20.2187 80.5689 20.2187C81.0022 20.2187 81.4265 20.2461 81.8418 20.3007C82.275 20.3555 82.6541 20.474 82.979 20.6562C83.3221 20.8385 83.5568 21.1575 83.6831 21.6132C83.954 21.6498 84.1525 21.7227 84.2789 21.832C84.4233 21.9414 84.5136 22.0782 84.5497 22.2421C84.5858 22.3881 84.5949 22.5612 84.5768 22.7617C84.5768 22.944 84.5768 23.1263 84.5768 23.3086C84.288 23.5273 83.9178 23.7097 83.4665 23.8555C83.0332 23.9831 82.5548 24.0925 82.0313 24.1835C81.5077 24.2566 80.9571 24.3112 80.3794 24.3476C79.8197 24.3659 79.2691 24.3841 78.7275 24.4024C78.6373 25.0039 78.4748 25.7148 78.2401 26.5352C78.0235 27.3372 77.7977 28.1302 77.563 28.9141C77.3283 29.6797 77.1208 30.3724 76.9402 30.9921C76.7777 31.5938 76.7055 31.9857 76.7236 32.168C76.543 32.5872 76.3896 32.9427 76.2633 33.2344C76.1549 33.526 76.0465 33.7995 75.9383 34.0547C75.848 34.3099 75.7487 34.5651 75.6404 34.8203C75.5502 35.0573 75.4328 35.3307 75.2884 35.6406H77.1298C77.1659 35.8412 77.2471 35.9778 77.3735 36.0508C77.4999 36.1237 77.6352 36.1875 77.7797 36.2421C77.9242 36.2969 78.0505 36.3698 78.1588 36.461C78.2852 36.5339 78.3483 36.6615 78.3483 36.8438C78.6914 36.9348 78.908 37.0716 78.9983 37.2539C79.0886 37.4362 79.1066 37.6367 79.0525 37.8555C79.0164 38.056 78.9261 38.2656 78.7817 38.4844C78.6553 38.7031 78.5289 38.8945 78.4026 39.0586C78.2401 39.0221 78.0866 39.0677 77.9422 39.1953C77.7977 39.3047 77.6624 39.4323 77.536 39.5782C77.0124 39.5052 76.4979 39.4961 75.9924 39.5508C75.487 39.6055 75.0175 39.6511 74.5843 39.6875C74.494 39.7057 74.458 39.7604 74.4759 39.8515C74.494 39.9245 74.4759 39.9791 74.4218 40.0156C73.8621 39.8333 73.2844 39.7604 72.6887 39.7969C72.111 39.8333 71.5153 39.9245 70.9014 40.0703C70.3057 40.1979 69.6919 40.3346 69.0599 40.4804C68.4282 40.6445 67.7873 40.7357 67.1373 40.7539ZM86.8471 37.8555C86.6666 38.0013 86.5583 38.1927 86.5222 38.4297C86.4861 38.6484 86.4409 38.8672 86.3868 39.0859C86.3327 39.3047 86.2334 39.4961 86.089 39.6601C85.9625 39.806 85.7278 39.8698 85.3848 39.8515C85.3126 39.9427 85.2946 39.9974 85.3307 40.0156C85.3848 40.0339 85.43 40.1159 85.466 40.2617C85.2134 40.2253 85.0328 40.2434 84.9245 40.3164C84.8162 40.3893 84.6807 40.444 84.5182 40.4804C84.1031 40.3529 83.751 40.1249 83.4622 39.7969C83.1914 39.4505 82.9476 39.0768 82.731 38.6758C82.5324 38.2747 82.3519 37.8646 82.1894 37.4453C82.045 37.026 81.8915 36.6615 81.7291 36.3515C81.7291 36.2786 81.7651 36.2513 81.8373 36.2696C81.8915 36.2696 81.9457 36.2696 81.9998 36.2696C81.9096 36.0872 81.8464 35.8867 81.8102 35.668C81.7561 35.431 81.6658 35.2396 81.5395 35.0938C82.063 33.9635 82.6227 32.7877 83.2185 31.5664C83.8142 30.3268 84.41 29.0782 85.0057 27.8203C85.6196 26.5443 86.2243 25.2683 86.82 23.9921C87.4339 22.6979 88.0206 21.431 88.5802 20.1914C89.0858 20.3737 89.5732 20.5925 90.0426 20.8476C90.5301 21.0846 90.9723 21.3672 91.3695 21.6953C91.7667 22.0234 92.1007 22.4062 92.3714 22.8438C92.6603 23.263 92.8498 23.7461 92.9401 24.293C92.9041 24.4024 92.8589 24.4388 92.8047 24.4024C92.7506 24.3659 92.7054 24.3841 92.6694 24.457C92.7597 24.5664 92.8047 24.6484 92.8047 24.7031C92.8228 24.7396 92.8228 24.7852 92.8047 24.8399C92.7867 24.8763 92.7776 24.931 92.7776 25.0039C92.7776 25.0768 92.8228 25.1771 92.9131 25.3047C92.8228 25.2864 92.7597 25.3047 92.7235 25.3594C92.6873 25.3958 92.6242 25.3958 92.5339 25.3594C92.6242 25.6146 92.6513 25.8152 92.6151 25.961C92.5791 26.1068 92.525 26.2434 92.4527 26.3711C92.3805 26.4804 92.3173 26.6081 92.2632 26.7539C92.227 26.8815 92.2451 27.0638 92.3173 27.3007C92.2451 27.3007 92.191 27.319 92.1548 27.3555C92.1367 27.3737 92.1188 27.4011 92.1007 27.4375C92.0826 27.474 92.0555 27.5104 92.0194 27.5469C92.0014 27.5652 91.9563 27.5652 91.8841 27.5469C91.9382 28.0209 91.9563 28.5039 91.9382 28.9961C91.9201 29.47 91.902 29.9623 91.8841 30.4727C91.866 30.9648 91.866 31.4753 91.8841 32.0039C91.902 32.5326 91.9742 33.0795 92.1007 33.6445C92.8769 33.1888 93.4998 32.5963 93.9691 31.8672C94.4566 31.1381 94.8357 30.3268 95.1065 29.4335C95.3954 28.5403 95.6121 27.5833 95.7565 26.5625C95.919 25.5416 96.0814 24.5026 96.2439 23.4453C96.4425 23.2448 96.5959 22.9987 96.7043 22.707C96.8306 22.4154 96.9299 22.1146 97.0021 21.8047C97.0924 21.4948 97.1736 21.1848 97.2458 20.8749C97.3361 20.5469 97.4534 20.2552 97.5979 20C97.9228 20.0364 98.1936 20.1368 98.4103 20.3007C98.6449 20.4467 98.8617 20.6198 99.0602 20.8203C99.2588 21.0026 99.4664 21.1758 99.683 21.3399C99.8997 21.5039 100.171 21.6132 100.495 21.668C100.748 22.0326 100.983 22.3881 101.2 22.7344C101.416 23.0625 101.561 23.4362 101.633 23.8555C101.525 24.0377 101.443 24.2383 101.389 24.457C101.335 24.6758 101.272 24.8945 101.2 25.1132C101.145 25.332 101.064 25.5326 100.956 25.7148C100.847 25.8971 100.694 26.052 100.495 26.1797C100.441 26.7266 100.36 27.237 100.252 27.711C100.143 28.1848 100.044 28.6498 99.9539 29.1055C99.8636 29.5612 99.7823 30.0352 99.7101 30.5273C99.6379 31.0196 99.6108 31.5573 99.6289 32.1406C99.4664 32.6692 99.2858 33.2161 99.0873 33.7813C98.8887 34.3282 98.7443 34.8385 98.654 35.3125C98.3109 35.5859 98.0402 35.9232 97.8417 36.3242C97.643 36.7253 97.4354 37.1263 97.2187 37.5273C97.1285 37.6002 97.0743 37.6185 97.0563 37.582C97.0383 37.5273 96.957 37.4909 96.8125 37.4727C96.8306 37.6367 96.7945 37.7461 96.7043 37.8007C96.6321 37.8372 96.6411 37.9648 96.7313 38.1835C96.4244 38.3295 96.1536 38.5209 95.919 38.7578C95.6843 38.9947 95.4225 39.2135 95.1337 39.4141C94.8628 39.6146 94.5378 39.7513 94.1587 39.8242C93.7976 39.8789 93.3192 39.7969 92.7235 39.5782C91.8389 38.9218 91.0445 38.1654 90.3405 37.3086C89.6364 36.4518 89.0767 35.4401 88.6615 34.2734C88.4809 34.3282 88.3456 34.4467 88.2553 34.6289C88.165 34.8112 88.0839 35.0026 88.0116 35.2031C87.9393 35.4037 87.8671 35.5859 87.7949 35.75C87.7227 35.9141 87.6144 35.9961 87.47 35.9961C87.4339 36.1601 87.3617 36.3152 87.2534 36.461C87.1631 36.5885 87.0728 36.7253 86.9825 36.8711C86.8922 36.9987 86.82 37.1445 86.7659 37.3086C86.7299 37.4727 86.7569 37.6549 86.8471 37.8555ZM103.849 26.8906C103.813 26.6537 103.768 26.5078 103.714 26.4531C103.84 26.1249 103.93 25.806 103.985 25.4961C104.057 25.168 104.111 24.8581 104.147 24.5664C104.183 24.3112 104.219 24.0742 104.255 23.8555C104.31 23.6368 104.373 23.4271 104.445 23.2266C104.751 23.1537 104.978 23.026 105.122 22.8438C105.285 22.6432 105.41 22.47 105.501 22.3242C105.826 22.306 106.033 22.3516 106.123 22.461C106.232 22.5703 106.35 22.7526 106.476 23.0078C106.566 23.2084 106.692 23.4271 106.855 23.6641C107.017 23.8828 107.261 24.056 107.586 24.1835C107.641 24.3841 107.704 24.5755 107.776 24.7578C107.848 24.9401 107.929 25.1315 108.019 25.332C108.182 25.7148 108.335 26.1159 108.479 26.5352C108.625 26.9362 108.706 27.319 108.723 27.6835C108.507 28.1029 108.335 28.5859 108.209 29.1328C108.101 29.6797 108.028 30.2357 107.992 30.8007C107.975 31.3476 107.992 31.8763 108.047 32.3867C108.101 32.8971 108.191 33.3255 108.317 33.6718L108.479 34.1094L109.075 34.0547C109.725 33.8906 110.312 33.7084 110.835 33.5078C111.359 33.289 111.847 33.0339 112.298 32.7421C112.75 32.4505 113.182 32.1224 113.598 31.7578C114.013 31.3749 114.447 30.9284 114.898 30.418C115.331 29.9075 115.719 29.3333 116.062 28.6953C116.406 28.039 116.685 27.3646 116.901 26.6718C117.137 25.9791 117.317 25.2864 117.443 24.5938C117.569 23.9011 117.651 23.2539 117.687 22.6524C118.029 22.4883 118.219 22.224 118.256 21.8594L118.175 21.5039C118.12 21.4128 118.093 21.3307 118.093 21.2578C118.112 21.1667 118.138 21.0846 118.175 21.0117C118.319 20.5925 118.626 20.2826 119.095 20.082C119.42 20.3007 119.718 20.5377 119.988 20.793C120.278 21.0482 120.54 21.3033 120.774 21.5586C120.81 22.0508 120.882 22.4791 120.991 22.8438C121.099 23.1901 121.216 23.5273 121.343 23.8555C121.469 24.1654 121.578 24.4661 121.668 24.7578C121.776 25.0495 121.848 25.4049 121.884 25.8242C121.704 26.3711 121.569 26.8906 121.478 27.3828C121.406 27.8568 121.334 28.3581 121.262 28.8868L121.207 29.1875C120.882 29.7526 120.557 30.3359 120.232 30.9375C119.925 31.5209 119.673 32.0313 119.474 32.4687C119.366 32.5782 119.266 32.7057 119.176 32.8515C119.104 32.9974 119.032 33.1432 118.96 33.289C118.923 33.3438 118.869 33.4348 118.797 33.5625C118.743 33.6901 118.688 33.7813 118.635 33.8359L117.985 33.5899L117.822 34.4375L117.389 34.5469L117.064 34.9297C116.648 35.6588 116.207 36.2696 115.737 36.7617C115.285 37.2539 114.772 37.6914 114.194 38.0742C113.634 38.457 112.993 38.8216 112.27 39.168C111.567 39.4961 110.754 39.8515 109.834 40.2344C109.473 40.1797 109.157 40.1524 108.886 40.1524C108.633 40.1341 108.381 40.1159 108.128 40.0976C107.875 40.0976 107.631 40.0885 107.397 40.0703C107.162 40.052 106.891 40.0247 106.584 39.9883C106.512 39.8242 106.413 39.7057 106.286 39.6328C106.16 39.5599 106.042 39.5234 105.934 39.5234C105.573 39.3412 105.303 39.0859 105.122 38.7578C104.941 38.4297 104.751 38.0652 104.553 37.6641C104.463 37.4453 104.363 37.2266 104.255 37.0078C104.164 36.789 104.048 36.5795 103.903 36.3789L104.445 36.2148L103.741 35.3945C103.687 35.3399 103.623 35.2852 103.551 35.2304C103.497 35.1758 103.443 35.1119 103.389 35.039V34.5196C103.316 33.0247 103.28 31.6484 103.28 30.3906C103.298 29.1146 103.47 27.9934 103.795 27.0273L103.849 26.8906ZM122.747 25.0039C122.728 24.8581 122.692 24.7304 122.638 24.6211C122.602 24.4934 122.557 24.3568 122.503 24.211C122.413 23.9921 122.331 23.7552 122.259 23.5C122.187 23.2448 122.151 22.944 122.151 22.5976C122.187 22.4154 122.232 22.2877 122.287 22.2148C122.34 22.1237 122.394 22.0508 122.448 21.9961L122.557 21.5039H122.963C123.107 21.5221 123.252 21.5313 123.397 21.5313C123.559 21.5313 123.712 21.5313 123.857 21.5313C124.543 21.5313 125.247 21.5039 125.969 21.4492C126.691 21.3945 127.431 21.3307 128.19 21.2578C129.02 21.1484 129.913 21.0664 130.871 21.0117C130.96 20.8112 131.015 20.6835 131.033 20.6289C131.069 20.5742 131.105 20.5104 131.141 20.4375L131.44 20.2734C131.854 20.2552 132.143 20.3099 132.306 20.4375C132.468 20.5469 132.594 20.6562 132.685 20.7656C133.154 20.7291 133.632 20.6835 134.121 20.6289C134.607 20.556 135.113 20.4831 135.637 20.4101C136.359 20.319 137.09 20.2278 137.83 20.1368C138.571 20.0456 139.293 20 139.996 20C140.303 20 140.593 20.0091 140.863 20.0273C141.134 20.0456 141.396 20.0729 141.649 20.1094L141.974 20.3555C142.046 20.4831 142.136 20.6016 142.244 20.711C142.352 20.8203 142.478 20.9297 142.624 21.039C142.894 21.2578 143.156 21.5313 143.409 21.8594C143.68 22.1875 143.778 22.6705 143.706 23.3086L143.571 23.582C143.499 23.6549 143.409 23.7278 143.3 23.8007L143.03 24.1562H142.731C142.551 24.1562 142.415 24.1745 142.325 24.211C142.235 24.2291 142.127 24.2656 142 24.3203C141.928 24.3568 141.847 24.3932 141.756 24.4297C141.666 24.4479 141.567 24.4753 141.459 24.5117C141.26 24.4934 141.106 24.4844 140.999 24.4844C140.89 24.4844 140.763 24.4844 140.619 24.4844C140.078 24.4844 139.491 24.5209 138.859 24.5938C138.227 24.6667 137.613 24.7487 137.018 24.8399C136.584 24.8945 136.169 24.9492 135.772 25.0039C135.375 25.0403 135.013 25.0768 134.688 25.1132C134.509 25.5872 134.346 26.0066 134.201 26.3711C134.057 26.7357 133.903 27.1002 133.741 27.4648C133.578 27.8295 133.425 28.2031 133.281 28.5859C133.137 28.9505 133 29.3606 132.875 29.8164C132.657 30.1445 132.477 30.4635 132.332 30.7734C132.188 31.0652 132.071 31.4024 131.981 31.7852C131.71 32.095 131.512 32.4323 131.385 32.7969C131.277 33.1615 131.178 33.4714 131.087 33.7266L130.979 34.1367C130.853 34.2643 130.771 34.3646 130.735 34.4375C130.718 34.5104 130.672 34.5925 130.6 34.6835C130.546 34.9205 130.473 35.1484 130.383 35.3672C130.347 35.4584 130.31 35.5586 130.275 35.668C130.238 35.7591 130.229 35.832 130.247 35.8867C130.212 36.0872 130.157 36.2421 130.085 36.3515C130.085 36.461 130.076 36.5703 130.058 36.6797C130.04 36.789 130.022 36.8984 130.004 37.0078C129.968 37.1354 129.941 37.2539 129.922 37.3632C129.904 37.4544 129.913 37.5456 129.95 37.6367C130.004 37.7097 130.058 37.7826 130.112 37.8555C130.166 37.9284 130.212 38.0196 130.247 38.1289C130.284 38.1654 130.329 38.1927 130.383 38.211C130.437 38.2291 130.482 38.2566 130.519 38.293C130.663 38.4205 130.798 38.4934 130.925 38.5117L131.196 38.8399C131.304 39.4961 131.204 40.0066 130.897 40.3711C130.572 40.7903 130.031 41 129.272 41L128.894 40.9727C128.768 40.845 128.695 40.763 128.677 40.7266C128.515 40.6537 128.379 40.5899 128.271 40.5352C128.162 40.4987 128.063 40.4167 127.973 40.289C127.937 40.2526 127.891 40.2344 127.838 40.2344C127.784 40.2161 127.738 40.1888 127.702 40.1524C127.522 40.0976 127.377 40.0339 127.269 39.961L126.971 39.7969C126.989 39.6146 126.998 39.487 126.998 39.4141C126.853 39.2135 126.737 38.9947 126.646 38.7578C126.574 38.5209 126.51 38.2747 126.456 38.0196C126.403 37.819 126.348 37.6367 126.294 37.4727C126.257 37.3086 126.194 37.1628 126.104 37.0352C126.068 35.7591 126.185 34.6927 126.456 33.8359C126.728 32.961 127.025 32.1132 127.35 31.293C127.531 30.8555 127.702 30.4088 127.865 29.9531C128.027 29.4974 128.172 29.0326 128.298 28.5586L128.596 28.2578C128.722 28.1484 128.803 28.0846 128.84 28.0664C128.84 27.8295 128.885 27.6016 128.975 27.3828C129.065 27.1458 129.165 26.9088 129.272 26.6718C129.345 26.526 129.409 26.3802 129.462 26.2344C129.534 26.0885 129.579 25.961 129.597 25.8516C129.472 25.8516 129.354 25.8606 129.246 25.8789C129.156 25.8789 129.056 25.8881 128.948 25.9062C128.713 25.961 128.487 25.9883 128.271 25.9883C128.109 25.9883 127.991 25.9791 127.919 25.961C127.775 26.0339 127.638 26.0795 127.513 26.0976C127.387 26.0976 127.26 26.0976 127.134 26.0976H126.809H126.484C126.267 26.0976 126.095 26.1249 125.969 26.1797C125.716 26.1797 125.554 26.1797 125.482 26.1797C125.409 26.1797 125.328 26.1797 125.238 26.1797H124.913H124.588C124.444 26.1797 124.281 26.1705 124.1 26.1524C123.92 26.1159 123.731 26.043 123.532 25.9335L123.342 25.7148C123.234 25.5143 123.135 25.4049 123.044 25.3868L122.747 25.3047V25.0039ZM140.318 28.0938C140.371 27.8203 140.407 27.6016 140.425 27.4375C140.443 27.2552 140.38 27.0638 140.235 26.8632C140.308 26.5716 140.362 26.3438 140.399 26.1797C140.453 26.0156 140.462 25.7877 140.425 25.4961C140.588 25.0221 140.831 24.6211 141.156 24.293C141.5 23.9648 141.869 23.6914 142.266 23.4727C142.664 23.2357 143.079 23.0443 143.512 22.8984C143.946 22.7344 144.352 22.5976 144.731 22.4883C144.731 22.4154 144.694 22.3789 144.622 22.3789C144.55 22.3789 144.533 22.3333 144.569 22.2421C145.543 22.0599 146.518 21.7956 147.493 21.4492C148.486 21.1029 149.497 20.793 150.527 20.5196C151.555 20.2461 152.611 20.082 153.694 20.0273C154.778 19.9544 155.915 20.0912 157.106 20.4375C157.178 20.6562 157.278 20.8659 157.405 21.0664C157.531 21.2669 157.658 21.4674 157.784 21.668C157.928 21.8502 158.055 22.0326 158.162 22.2148C158.271 22.3971 158.334 22.5885 158.352 22.789C158.569 22.9896 158.74 23.2084 158.867 23.4453C159.011 23.6641 159.039 23.9648 158.948 24.3476C158.749 24.4934 158.542 24.6393 158.325 24.7852C158.109 24.931 157.883 25.0677 157.649 25.1953C156.836 24.9948 156.024 24.9218 155.211 24.9766C154.399 25.0313 153.668 25.095 153.018 25.168C152.819 24.9492 152.584 24.8489 152.314 24.8672C152.043 24.8672 151.753 24.9128 151.447 25.0039C151.158 25.0768 150.869 25.1588 150.58 25.25C150.291 25.3229 150.021 25.3412 149.768 25.3047C149.569 25.487 149.308 25.6146 148.983 25.6875C148.658 25.7421 148.315 25.7877 147.953 25.8242C147.936 25.9154 147.953 25.9791 148.008 26.0156C148.062 26.052 148.071 26.1249 148.035 26.2344C148.161 26.3984 148.333 26.5169 148.549 26.5899C148.766 26.6445 148.983 26.6992 149.199 26.7539C149.434 26.8086 149.641 26.8906 149.822 27C150.003 27.0912 150.12 27.2461 150.174 27.4648C150.499 27.4831 150.778 27.5742 151.014 27.7383C151.249 27.8841 151.447 28.0664 151.609 28.2852C151.772 28.5039 151.889 28.7409 151.962 28.9961C152.034 29.2331 152.061 29.4518 152.043 29.6524C152.115 29.8346 152.187 29.9075 152.259 29.8711C152.349 29.8346 152.449 29.8802 152.558 30.0078C152.63 30.2813 152.792 30.5729 153.044 30.8828C153.315 31.1745 153.523 31.4934 153.668 31.8399C153.703 32.3868 153.731 32.8789 153.749 33.3164C153.784 33.7539 153.712 34.1823 153.533 34.6015C153.225 35.4037 152.783 36.1237 152.205 36.7617C151.627 37.3998 150.968 37.9648 150.228 38.457C149.506 38.931 148.739 39.3502 147.927 39.7148C147.114 40.0612 146.311 40.3529 145.516 40.5899C145.444 40.5716 145.354 40.5716 145.246 40.5899C145.155 40.6081 145.137 40.5533 145.191 40.4258C145.029 40.5716 144.84 40.6628 144.622 40.6992C144.424 40.7357 144.199 40.7448 143.946 40.7266C143.711 40.7266 143.468 40.7174 143.215 40.6992C142.98 40.681 142.746 40.6901 142.51 40.7266C142.366 40.5807 142.231 40.4348 142.104 40.289C141.996 40.1432 141.906 39.97 141.834 39.7696C141.743 39.7513 141.699 39.6967 141.699 39.6055C141.716 39.4961 141.68 39.4414 141.59 39.4414C141.59 39.3685 141.599 39.3138 141.616 39.2773C141.635 39.2409 141.653 39.2044 141.671 39.168C141.743 39.1132 141.771 39.0768 141.752 39.0586C141.752 39.0221 141.725 38.9948 141.671 38.9766C141.635 38.9401 141.59 38.9037 141.535 38.8672C141.5 38.8307 141.49 38.7852 141.509 38.7304C141.599 38.5664 141.626 38.3749 141.59 38.1562C141.572 37.9192 141.553 37.6823 141.535 37.4453C141.518 37.2084 141.535 36.9896 141.59 36.789C141.644 36.5703 141.797 36.3881 142.05 36.2421C142.79 36.3152 143.485 36.2786 144.135 36.1328C144.803 35.987 145.427 35.7864 146.003 35.5313C146.6 35.276 147.159 35.0026 147.683 34.711C148.224 34.4011 148.747 34.1185 149.253 33.8632C149.308 33.681 149.389 33.526 149.497 33.3984C149.624 33.2709 149.75 33.1524 149.877 33.043C150.003 32.9154 150.12 32.7877 150.228 32.6601C150.337 32.5143 150.418 32.3412 150.472 32.1406C150.49 32.0677 150.49 32.013 150.472 31.9766C150.454 31.9401 150.427 31.9128 150.391 31.8945C150.355 31.8581 150.318 31.8216 150.283 31.7852C150.246 31.7487 150.228 31.694 150.228 31.6211C150.174 31.6029 150.12 31.5846 150.066 31.5664C150.03 31.5482 149.993 31.539 149.958 31.539C149.488 31.302 148.991 31.1015 148.468 30.9375C147.944 30.7734 147.502 30.5912 147.141 30.3906C146.925 30.5364 146.708 30.5729 146.491 30.5C146.275 30.4271 146.013 30.3542 145.706 30.2813C144.947 30.2448 144.225 30.1718 143.54 30.0625C142.872 29.9531 142.222 29.7617 141.59 29.4883C141.553 29.3789 141.509 29.2877 141.455 29.2148C141.4 29.1237 141.274 29.0963 141.075 29.1328C140.949 28.9505 140.813 28.7864 140.669 28.6406C140.543 28.4766 140.425 28.2943 140.318 28.0938Z" fill="#FEB302"/>
<path d="M6.46283 37.5889C5.95222 37.1916 5.52967 36.6949 5.19507 36.0989C4.87821 35.5029 4.62291 34.8707 4.42916 34.2025C4.25315 33.5343 4.12982 32.848 4.0594 32.1437C4.0066 31.4212 3.98899 30.7349 4.00661 30.0847C4.16509 29.597 4.35873 29.1546 4.58764 28.7572C4.81655 28.3418 5.07185 27.9535 5.35355 27.5923C5.63525 27.213 5.92582 26.8608 6.22516 26.5357C6.54202 26.1926 6.85022 25.8494 7.14955 25.5063C7.25514 25.5063 7.35196 25.5334 7.44002 25.5875C7.51044 25.3889 7.61613 25.2173 7.75698 25.0729C7.89783 24.9284 8.04755 24.8019 8.20593 24.6936C8.36441 24.5672 8.5229 24.4498 8.68138 24.3414C8.83986 24.215 8.97184 24.0705 9.07753 23.9079C9.51772 23.7995 9.90511 23.6461 10.2396 23.4473C10.5917 23.2487 10.9263 23.032 11.2433 22.7972C11.5602 22.5624 11.8859 22.3457 12.2205 22.147C12.555 21.9483 12.9424 21.7948 13.3825 21.6864C13.541 21.5059 13.7347 21.3523 13.9636 21.2259C14.2101 21.0995 14.4478 20.9821 14.6767 20.8737C14.9231 20.7653 15.152 20.6479 15.3633 20.5215C15.5922 20.3951 15.7771 20.2236 15.918 20.0067C16.0236 20.1513 16.1733 20.2055 16.367 20.1693C16.5607 20.1151 16.7368 20.061 16.8953 20.0067C17.0008 19.9888 17.0889 20.0067 17.1593 20.061C17.2297 20.1151 17.2914 20.1784 17.3442 20.2506C17.4146 20.3048 17.4674 20.341 17.5027 20.3589C17.5555 20.377 17.6083 20.3229 17.6612 20.1964C17.802 20.2145 17.8372 20.2777 17.7668 20.386C17.714 20.4944 17.6787 20.5667 17.6612 20.6028C17.8372 20.5667 17.978 20.6028 18.0837 20.7111C18.2069 20.8015 18.3918 20.8647 18.6384 20.9008C18.7264 20.9911 18.7528 21.0633 18.7175 21.1175C18.6824 21.1718 18.656 21.262 18.6384 21.3885C19.2722 21.5871 19.6772 21.9031 19.8532 22.3367C20.0293 22.752 20.047 23.1945 19.9061 23.664C19.7653 24.1156 19.5011 24.54 19.1137 24.9374C18.7439 25.3166 18.3303 25.5695 17.8724 25.6959C17.3266 25.8404 16.816 25.9849 16.3406 26.1294C15.8828 26.2738 15.4337 26.4364 14.9936 26.617C14.571 26.7976 14.1661 27.0144 13.7787 27.2672C13.4089 27.502 13.0832 27.782 12.8015 28.1071C12.3085 28.2516 11.8595 28.4502 11.4546 28.7031C11.0672 28.9559 10.6974 29.2358 10.3453 29.5429C10.0107 29.8499 9.68496 30.175 9.3681 30.5181C9.05114 30.8433 8.73417 31.1683 8.4172 31.4934C8.4172 31.8004 8.36441 32.0353 8.25883 32.1978C8.15314 32.3604 8.03868 32.5228 7.91547 32.6854C7.95062 33.0286 8.02105 33.3266 8.12674 33.5794C8.24996 33.8142 8.37328 34.058 8.4965 34.3109C9.90511 34.7444 11.3929 35.0152 12.96 35.1236C14.5446 35.214 16.1117 35.2681 17.6612 35.2862C17.8197 35.5029 17.9957 35.7106 18.1894 35.9093C18.4007 36.0899 18.5856 36.2796 18.7439 36.4782C18.9201 36.6768 19.0521 36.9116 19.1402 37.1826C19.2458 37.4354 19.2722 37.7424 19.2194 38.1036C18.9201 38.4106 18.5943 38.7087 18.2422 38.9976C17.8901 39.2685 17.5378 39.5395 17.1857 39.8104C17.0272 39.8284 16.8336 39.8284 16.6047 39.8104C16.3934 39.7924 16.1645 39.7833 15.918 39.7833C15.6892 39.7833 15.4514 39.8014 15.2049 39.8374C14.976 39.8555 14.7559 39.9097 14.5446 40C13.4353 39.9639 12.2997 39.8284 11.1376 39.5936C9.97553 39.3409 8.90142 39.0428 7.91547 38.6997C7.72172 38.4649 7.51931 38.2482 7.30804 38.0495C7.09665 37.8327 6.81495 37.6793 6.46283 37.5889Z" fill="#FEB302"/>
<path d="M43.6298 17.1308C43.0476 17.479 41.8043 17.9849 40.8114 18.2851C38.4573 18.9839 36.7496 19.8039 34.935 21.1024C33.9895 21.7865 32.318 23.2162 32.0004 23.6085C31.99 23.6258 32.1974 23.8019 32.4581 24.0034L32.9396 24.3778L33.2056 24.1461C33.6324 23.7811 34.1201 23.1267 34.3544 22.6267C34.4702 22.3696 34.5744 22.1598 34.5877 22.1567C34.654 22.1417 34.5218 22.6334 34.344 23.0684C34.148 23.5522 33.6934 24.1991 33.3706 24.4586C33.178 24.6066 33.1865 24.6493 33.5134 24.9771C33.74 25.216 34.1825 25.8153 34.5329 26.3686C34.6744 26.597 34.7427 26.5219 34.9784 25.8876C35.1779 25.3509 35.5133 25.014 36.3291 24.5158C37.116 24.0466 37.3928 23.6933 38.4444 21.8535C39.7232 19.6195 40.0304 19.1029 39.8408 19.5481C39.5158 20.2921 38.4691 22.369 38.0106 23.1732C37.5051 24.055 37.1843 24.396 36.4253 24.8663C35.7956 25.255 35.5812 25.4677 35.3936 25.8528C35.3065 26.0438 35.158 26.3457 35.0614 26.5239L34.8972 26.8516L35.1889 27.1055C35.6816 27.537 36.6414 28.2347 36.8854 28.3505L37.1148 28.4622L37.423 27.9156C37.7926 27.2583 38.384 25.8953 38.885 24.5306C39.3174 23.3453 39.3407 23.2878 39.2065 23.8395C38.8905 25.125 38.0789 27.3421 37.6388 28.1346L37.3411 28.6638L38.0045 29.0492L38.676 29.4401L38.8082 29.2313C39.0058 28.9333 39.5281 27.8541 39.7785 27.2239C40.0756 26.4788 40.2886 25.5518 40.3284 24.8354C40.3849 23.6386 40.8092 22.1648 41.7551 19.8203C42.4116 18.1894 42.3838 18.3298 41.5968 20.6381C41.0061 22.3583 40.7126 23.6163 40.632 24.7962C40.5943 25.3111 40.5152 25.9321 40.4524 26.1771C40.2913 26.8392 39.8492 27.9747 39.4232 28.8385C39.0765 29.5426 39.0598 29.5985 39.1882 29.6886C39.3952 29.8276 40.6524 30.3832 40.7253 30.3666C40.7585 30.3592 41.1085 29.885 41.5 29.3046C41.978 28.6002 42.2563 28.1126 42.3542 27.8C42.5877 27.0842 42.7395 25.985 42.8521 24.2618C42.9693 22.4556 43.0855 21.2454 43.1336 21.2791C43.1563 21.2888 43.1545 21.386 43.1462 21.4847C43.1311 21.5849 43.1018 22.4255 43.0826 23.3531C43.0281 26.1875 42.8618 27.5655 42.4672 28.3774C42.3733 28.5699 42.0163 29.15 41.6732 29.6598L41.0408 30.6003L41.4923 30.8922L41.9438 31.1842L42.0598 30.9643L42.1826 30.7428L42.1226 31.0021L42.0627 31.2614L42.4936 31.6251C42.7264 31.8254 42.9458 31.9914 42.975 31.9997C43.1678 32.0303 43.7323 29.6459 43.8871 28.1738C44.0758 26.344 44.0326 24.8497 43.7224 22.2026C43.4944 20.2589 43.5063 19.6829 43.7877 18.5393C43.9617 17.8372 44.0025 16.9493 43.8676 17.0023C43.8344 17.0097 43.7354 17.0695 43.6298 17.1308ZM37.2015 21.1234C37.0959 21.4676 36.2636 22.7661 35.6692 23.5117C35.3975 23.8564 34.9593 24.4103 34.6944 24.7534C34.4213 25.0909 34.2006 25.3421 34.1937 25.3065C34.1714 25.1924 35.0722 23.8559 36.0178 22.6061C36.545 21.9054 37.0365 21.2353 37.1017 21.1087C37.2663 20.8182 37.2943 20.8193 37.2015 21.1234ZM42.572 21.1313C42.2476 22.7983 42.1396 23.4483 42.0179 24.4886C41.9551 25.0166 41.8948 25.3803 41.8728 25.3033C41.8253 25.061 41.9094 23.8283 42.0297 23.0638C42.1434 22.3009 42.702 19.9922 42.7567 20.0246C42.7742 20.0429 42.6912 20.5383 42.572 21.1313Z" fill="#BC5D1D"/>
<path d="M30.4139 23.2375C28.9583 24.2839 26.9455 27.7252 26.3563 30.1722C25.5718 33.4049 26.1237 37.5431 27.6109 39.6359C28.0096 40.1981 28.4191 40.4956 28.8247 40.5243C29.3069 40.5507 29.7365 40.7013 30.7108 41.1939C32.0517 41.8739 32.8169 42.054 34.1154 41.9869C35.2968 41.9311 37.4058 41.3521 38.8329 40.6944C41.7261 39.3624 43.4776 36.8338 43.9402 33.3214L44 32.8436L43.7979 32.5668C43.2683 31.8394 41.509 30.5343 40.3948 30.0432C38.5638 29.2263 36.1253 27.7143 35.0776 26.7438C34.8805 26.5634 34.582 26.1885 34.4096 25.92C33.5179 24.5324 32.3385 23.4641 31.2915 23.1002C30.847 22.9454 30.8068 22.9545 30.4139 23.2375ZM34.9114 27.8897C35.7426 28.6168 36.8977 29.421 37.6987 29.8177C38.0411 29.988 38.7833 30.3006 39.3575 30.5086C40.5831 30.9597 41.5018 31.42 42.0974 31.8778C42.7663 32.3868 42.8066 32.52 42.1726 32.1157C41.5059 31.6887 40.677 31.3282 39.4696 30.9329C38.9981 30.7841 38.3306 30.5297 37.9911 30.3737C37.2135 30.0242 35.8956 29.1068 35.2578 28.4712C34.7697 27.989 34.1761 27.3284 34.2231 27.3179C34.2365 27.3148 34.5474 27.5746 34.9114 27.8897ZM27.8199 29.2739C27.6645 29.8707 27.5162 31.3199 27.5082 32.273C27.4808 34.6163 27.9119 37.0439 28.5914 38.3518C28.9949 39.1152 29.4352 39.3908 30.725 39.6701C31.1634 39.7589 31.7497 39.9567 32.0298 40.096C32.644 40.3999 33.0595 40.4788 34.0087 40.4902C34.9848 40.4956 37.2993 39.9978 38.1998 39.5857C38.9716 39.2323 39.9003 38.6791 40.4707 38.2287C41.4416 37.4637 42.5303 36.0878 43.1239 34.8682C43.3427 34.4146 43.2711 34.6553 43.0131 35.2302C42.7038 35.9365 41.9413 37.0817 41.3965 37.6611C39.793 39.3773 37.4834 40.5032 34.9983 40.7771C33.5784 40.939 32.6189 40.84 31.9191 40.458C31.7457 40.3621 31.1149 40.1518 30.5156 39.9944C29.5896 39.7456 29.3692 39.6602 29.0124 39.3808C28.3354 38.8663 27.969 38.0423 27.6129 36.2422C27.1718 34.0115 27.1992 31.526 27.6918 29.5125C27.7799 29.1781 27.8579 28.8984 27.8781 28.8938C27.8982 28.8894 27.869 29.0607 27.8199 29.2739ZM41.8918 35.3774C40.9425 36.9616 39.4038 38.2962 37.7066 39.0073C36.8513 39.3643 35.4459 39.6352 34.6593 39.5949L34.1272 39.5646L34.5387 39.517C35.3644 39.4364 37.2081 38.9695 37.7588 38.7035C39.3049 37.9739 40.9041 36.6256 41.897 35.2264C42.2195 34.7644 42.2174 34.8248 41.8918 35.3774Z" fill="#BC5D1D"/>
<path d="M32.3494 50.5206C32.3451 50.8635 32.3407 51.1959 32.3364 51.5179C32.3364 51.6559 32.3342 51.798 32.3298 51.9445C32.3298 52.0866 32.3277 52.2288 32.3234 52.3709C32.3234 52.5131 32.3234 52.6491 32.3234 52.7787C32.3234 52.9042 32.3234 53.017 32.3234 53.1174C32.3234 53.3265 32.3234 53.5794 32.3234 53.8764C32.3277 54.1691 32.3321 54.4701 32.3364 54.7796C32.3407 55.0891 32.3472 55.388 32.356 55.6765C32.3647 55.9609 32.3755 56.1993 32.3885 56.3916C32.432 56.4 32.4885 56.4083 32.558 56.4167C32.6276 56.4209 32.6992 56.4272 32.7732 56.4355C32.8514 56.4397 32.9274 56.4439 33.0013 56.4481C33.0751 56.4481 33.1382 56.4481 33.1904 56.4481C33.4294 56.4481 33.6706 56.4334 33.9139 56.4042C34.1617 56.3748 34.3985 56.3206 34.6245 56.241C34.8548 56.1574 35.07 56.0445 35.2699 55.9023C35.4698 55.7601 35.6436 55.5783 35.7913 55.3567C35.9435 55.1308 36.0608 54.8611 36.1434 54.5475C36.2304 54.2297 36.2738 53.8554 36.2738 53.4247C36.2738 52.4755 36.0369 51.7437 35.5633 51.2294C35.0939 50.715 34.392 50.4579 33.4576 50.4579C33.3664 50.4579 33.2686 50.4599 33.1643 50.4642C33.0644 50.4683 32.9643 50.4746 32.8644 50.4829C32.7644 50.4871 32.6688 50.4934 32.5776 50.5017C32.4906 50.5101 32.4146 50.5164 32.3494 50.5206ZM31 50.0627C31.1044 50.0669 31.202 50.0689 31.2934 50.0689C31.3716 50.0731 31.4476 50.0753 31.5216 50.0753C31.5954 50.0753 31.6497 50.0753 31.6844 50.0753C31.7453 50.0753 31.854 50.0731 32.0104 50.0689C32.1669 50.0648 32.3429 50.0606 32.5384 50.0564C32.7384 50.0481 32.947 50.0418 33.1643 50.0376C33.3859 50.0292 33.5902 50.0251 33.7771 50.0251C34.2855 50.0251 34.7701 50.0815 35.2307 50.1944C35.6914 50.3073 36.0956 50.4934 36.4433 50.7527C36.7953 51.0078 37.0735 51.3443 37.2777 51.7625C37.482 52.1765 37.5841 52.6888 37.5841 53.2993C37.5841 53.9558 37.4668 54.5119 37.2321 54.9678C36.9974 55.4236 36.6802 55.7957 36.2803 56.0843C35.8805 56.3686 35.4155 56.5755 34.8853 56.7052C34.3594 56.8307 33.8031 56.8934 33.2164 56.8934C33.0774 56.8934 32.9035 56.8892 32.6949 56.8809C32.4863 56.8725 32.2733 56.8642 32.056 56.8558C31.8388 56.8473 31.6324 56.839 31.4368 56.8306C31.2455 56.8223 31.0999 56.8181 31 56.8181V56.7931C31.0304 56.7052 31.0565 56.5924 31.0782 56.4544C31.1044 56.3163 31.1238 56.1469 31.1368 55.9462C31.1543 55.7413 31.1673 55.4988 31.176 55.2187C31.1847 54.9384 31.189 54.6102 31.189 54.2338V52.6532C31.189 52.2768 31.1847 51.9486 31.176 51.6685C31.1673 51.3882 31.1543 51.1458 31.1368 50.9409C31.1238 50.736 31.1044 50.5645 31.0782 50.4265C31.0565 50.2885 31.0304 50.1756 31 50.0878V50.0627ZM42.4923 53.5439C42.5792 53.5564 42.6662 53.5669 42.7531 53.5753C42.8443 53.5794 42.9312 53.5816 43.0139 53.5816C43.557 53.5816 43.9678 53.4414 44.2459 53.1613C44.5284 52.8811 44.6696 52.4609 44.6696 51.9005C44.6696 51.4406 44.5567 51.0767 44.3307 50.8091C44.109 50.5415 43.7809 50.4076 43.3463 50.4076C43.2072 50.4076 43.0834 50.414 42.9747 50.4265C42.8705 50.4348 42.7813 50.4453 42.7075 50.4579C42.6249 50.4746 42.5532 50.4913 42.4923 50.5081V53.5439ZM43.4897 53.9516C43.4028 53.9642 43.3158 53.9725 43.2289 53.9767C43.1464 53.9767 43.0616 53.9767 42.9747 53.9767C42.9052 53.9767 42.8291 53.9747 42.7465 53.9704C42.664 53.9662 42.5792 53.96 42.4923 53.9516V54.259C42.4923 54.6311 42.4966 54.9573 42.5053 55.2374C42.514 55.5134 42.5249 55.7518 42.5379 55.9525C42.5554 56.1532 42.5749 56.3226 42.5967 56.4606C42.6184 56.5944 42.6444 56.7052 42.6749 56.7931V56.8181H41.169V56.7931C41.1994 56.7052 41.2254 56.5924 41.2472 56.4544C41.2733 56.3163 41.2928 56.1469 41.3059 55.9462C41.3232 55.7413 41.3362 55.4988 41.345 55.2187C41.3537 54.9384 41.358 54.6102 41.358 54.2338V52.6532C41.358 52.2768 41.3537 51.9507 41.345 51.6747C41.3362 51.3945 41.3232 51.1541 41.3059 50.9534C41.2928 50.7485 41.2733 50.577 41.2472 50.439C41.2254 50.301 41.1994 50.1881 41.169 50.1003V50.0753C41.2386 50.0794 41.3124 50.0836 41.3906 50.0878C41.4558 50.092 41.5275 50.0961 41.6057 50.1003C41.6884 50.1003 41.7709 50.1003 41.8535 50.1003C41.9925 50.1003 42.1989 50.0878 42.4727 50.0627C42.7465 50.0376 43.0682 50.0251 43.4375 50.0251C43.8113 50.0251 44.1502 50.0689 44.4545 50.1567C44.763 50.2446 45.026 50.3701 45.2433 50.5331C45.4649 50.6961 45.6344 50.8948 45.7518 51.129C45.8735 51.3632 45.9343 51.6245 45.9343 51.9131C45.9343 52.1389 45.9017 52.3459 45.8365 52.534C45.7713 52.718 45.68 52.8853 45.5627 53.0358C45.4454 53.1822 45.3063 53.3118 45.1455 53.4247C44.9847 53.5376 44.8065 53.6358 44.6109 53.7196L45.9734 55.5699C46.0908 55.7204 46.2081 55.8647 46.3254 56.0027C46.4471 56.1407 46.5623 56.264 46.671 56.3728C46.7795 56.4815 46.8817 56.5735 46.9774 56.6488C47.0729 56.7199 47.1534 56.7679 47.2186 56.7931V56.8181H45.5106C45.5106 56.7804 45.4823 56.7157 45.4258 56.6237C45.3737 56.5275 45.3106 56.4292 45.2368 56.3289C45.1672 56.2243 45.0956 56.124 45.0216 56.0278C44.9521 55.9316 44.9 55.8606 44.8652 55.8145L43.4897 53.9516ZM50.2753 52.6532C50.2753 52.2768 50.271 51.9507 50.2623 51.6747C50.2536 51.3945 50.2406 51.1541 50.2233 50.9534C50.2101 50.7485 50.1907 50.577 50.1645 50.439C50.1428 50.301 50.1168 50.1881 50.0863 50.1003V50.0753H51.5987V50.1003C51.5682 50.1881 51.5401 50.301 51.5139 50.439C51.4922 50.577 51.4727 50.7485 51.4553 50.9534C51.4423 51.1541 51.4314 51.3945 51.4227 51.6747C51.414 51.9507 51.4097 52.2768 51.4097 52.6532V54.2338C51.4097 54.6102 51.414 54.9384 51.4227 55.2187C51.4314 55.4988 51.4423 55.7413 51.4553 55.9462C51.4727 56.1469 51.4922 56.3163 51.5139 56.4544C51.5401 56.5924 51.5682 56.7052 51.5987 56.7931V56.8181H50.0863V56.7931C50.1168 56.7052 50.1428 56.5924 50.1645 56.4544C50.1907 56.3163 50.2101 56.1469 50.2233 55.9462C50.2406 55.7413 50.2536 55.4988 50.2623 55.2187C50.271 54.9384 50.2753 54.6102 50.2753 54.2338V52.6532ZM55.6138 50.0753C56.0397 50.0753 56.4765 50.0753 56.9241 50.0753C57.3718 50.0711 57.7868 50.0669 58.1693 50.0627C58.5517 50.0543 58.8797 50.0459 59.1535 50.0376C59.4317 50.0292 59.6143 50.0167 59.7011 50L59.4469 50.6774C59.3296 50.6481 59.1971 50.6209 59.0493 50.5958C58.9189 50.575 58.7603 50.5561 58.5735 50.5394C58.3909 50.5184 58.1779 50.5081 57.9345 50.5081C57.8476 50.5081 57.7477 50.5122 57.6347 50.5206C57.5216 50.5248 57.4131 50.5311 57.3087 50.5394C57.1871 50.5478 57.0632 50.5561 56.9371 50.5645V53.0421C57.2892 53.038 57.6064 53.0295 57.8889 53.017C58.1714 53.0045 58.4126 52.9878 58.6125 52.9668C58.8472 52.9501 59.0536 52.9271 59.2318 52.8978L59.0753 53.6443C58.8364 53.615 58.5952 53.5899 58.3517 53.5689C58.1431 53.5481 57.9128 53.5314 57.6607 53.5188C57.4087 53.502 57.1675 53.4937 56.9371 53.4937V56.3414C57.3413 56.3414 57.7129 56.3268 58.0519 56.2975C58.3909 56.264 58.6864 56.2285 58.9385 56.1909C59.234 56.1449 59.5012 56.0926 59.7403 56.0341L59.5903 56.8558C59.5251 56.8515 59.4187 56.8453 59.2709 56.837C59.1275 56.8328 58.9754 56.8286 58.8146 56.8244C58.6581 56.8244 58.5104 56.8223 58.3713 56.8181C58.2322 56.8181 58.1367 56.8181 58.0845 56.8181H55.6138V56.7931C55.6442 56.7052 55.6703 56.5924 55.692 56.4544C55.7181 56.3163 55.7377 56.1469 55.7507 55.9462C55.7681 55.7413 55.7812 55.4988 55.7898 55.2187C55.7985 54.9384 55.8029 54.6102 55.8029 54.2338V52.6532C55.8029 52.2768 55.7985 51.9507 55.7898 51.6747C55.7812 51.3945 55.7681 51.1541 55.7507 50.9534C55.7377 50.7485 55.7181 50.577 55.692 50.439C55.6703 50.301 55.6442 50.1881 55.6138 50.1003V50.0753ZM64.7463 50.5206C64.7419 50.8635 64.7376 51.1959 64.7333 51.5179C64.7333 51.6559 64.731 51.798 64.7267 51.9445C64.7267 52.0866 64.7246 52.2288 64.7202 52.3709C64.7202 52.5131 64.7202 52.6491 64.7202 52.7787C64.7202 52.9042 64.7202 53.017 64.7202 53.1174C64.7202 53.3265 64.7202 53.5794 64.7202 53.8764C64.7246 54.1691 64.7289 54.4701 64.7333 54.7796C64.7376 55.0891 64.7442 55.388 64.7528 55.6765C64.7615 55.9609 64.7723 56.1993 64.7854 56.3916C64.8288 56.4 64.8853 56.4083 64.9549 56.4167C65.0244 56.4209 65.0962 56.4272 65.17 56.4355C65.2483 56.4397 65.3243 56.4439 65.3981 56.4481C65.4721 56.4481 65.5351 56.4481 65.5873 56.4481C65.8262 56.4481 66.0674 56.4334 66.3109 56.4042C66.5585 56.3748 66.7954 56.3206 67.0214 56.241C67.2518 56.1574 67.4668 56.0445 67.6667 55.9023C67.8667 55.7601 68.0405 55.5783 68.1883 55.3567C68.3404 55.1308 68.4577 54.8611 68.5403 54.5475C68.6272 54.2297 68.6707 53.8554 68.6707 53.4247C68.6707 52.4755 68.4339 51.7437 67.9601 51.2294C67.4907 50.715 66.7888 50.4579 65.8545 50.4579C65.7633 50.4579 65.6655 50.4599 65.5611 50.4642C65.4612 50.4683 65.3612 50.4746 65.2613 50.4829C65.1614 50.4871 65.0657 50.4934 64.9745 50.5017C64.8876 50.5101 64.8115 50.5164 64.7463 50.5206ZM63.3969 50.0627C63.5012 50.0669 63.599 50.0689 63.6902 50.0689C63.7684 50.0731 63.8445 50.0753 63.9184 50.0753C63.9923 50.0753 64.0466 50.0753 64.0814 50.0753C64.1422 50.0753 64.2509 50.0731 64.4073 50.0689C64.5637 50.0648 64.7398 50.0606 64.9353 50.0564C65.1352 50.0481 65.3438 50.0418 65.5611 50.0376C65.7828 50.0292 65.987 50.0251 66.1739 50.0251C66.6824 50.0251 67.167 50.0815 67.6277 50.1944C68.0883 50.3073 68.4925 50.4934 68.8402 50.7527C69.1922 51.0078 69.4703 51.3443 69.6746 51.7625C69.8789 52.1765 69.981 52.6888 69.981 53.2993C69.981 53.9558 69.8636 54.5119 69.629 54.9678C69.3942 55.4236 69.077 55.7957 68.6772 56.0843C68.2773 56.3686 67.8124 56.5755 67.2821 56.7052C66.7563 56.8307 66.2001 56.8934 65.6133 56.8934C65.4742 56.8934 65.3004 56.8892 65.0918 56.8809C64.8832 56.8725 64.6703 56.8642 64.4529 56.8558C64.2356 56.8473 64.0292 56.839 63.8336 56.8306C63.6424 56.8223 63.4969 56.8181 63.3969 56.8181V56.7931C63.4273 56.7052 63.4534 56.5924 63.4751 56.4544C63.5012 56.3163 63.5207 56.1469 63.5338 55.9462C63.5512 55.7413 63.5642 55.4988 63.5729 55.2187C63.5815 54.9384 63.5859 54.6102 63.5859 54.2338V52.6532C63.5859 52.2768 63.5815 51.9486 63.5729 51.6685C63.5642 51.3882 63.5512 51.1458 63.5338 50.9409C63.5207 50.736 63.5012 50.5645 63.4751 50.4265C63.4534 50.2885 63.4273 50.1756 63.3969 50.0878V50.0627ZM81.0947 54.2338C81.0947 54.6102 81.099 54.9384 81.1077 55.2187C81.1164 55.4988 81.1273 55.7413 81.1403 55.9462C81.1577 56.1469 81.1772 56.3163 81.1989 56.4544C81.2207 56.5924 81.2468 56.7052 81.2771 56.7931V56.8181H79.7713V56.7931C79.8018 56.7052 79.8278 56.5924 79.8495 56.4544C79.8756 56.3163 79.8952 56.1469 79.9082 55.9462C79.9256 55.7413 79.9386 55.4988 79.9473 55.2187C79.956 54.9384 79.9604 54.6102 79.9604 54.2338V52.6532C79.9604 52.2768 79.956 51.9507 79.9473 51.6747C79.9386 51.3945 79.9256 51.1541 79.9082 50.9534C79.8952 50.7485 79.8756 50.577 79.8495 50.439C79.8278 50.301 79.8018 50.1881 79.7713 50.1003V50.0753C80.0538 50.0753 80.345 50.0753 80.6449 50.0753C80.949 50.0753 81.2468 50.0753 81.5379 50.0753C81.8334 50.0711 82.1138 50.0669 82.3789 50.0627C82.6484 50.0584 82.8896 50.0543 83.1025 50.0501C83.3198 50.0418 83.5045 50.0355 83.6566 50.0314C83.8087 50.0229 83.9151 50.0125 83.976 50L83.7088 50.6774C83.5957 50.6481 83.4653 50.6209 83.3176 50.5958C83.1915 50.575 83.033 50.5561 82.8417 50.5394C82.6548 50.5184 82.4419 50.5081 82.2029 50.5081C82.116 50.5081 82.0094 50.5122 81.8835 50.5206C81.7618 50.5248 81.6423 50.5311 81.5249 50.5394C81.3858 50.5478 81.2424 50.5561 81.0947 50.5645V52.8476C81.4467 52.8435 81.7683 52.8351 82.0595 52.8226C82.3506 52.8059 82.6028 52.7891 82.8157 52.7724C83.0633 52.7557 83.285 52.7347 83.4806 52.7097L83.3372 53.4623C83.0807 53.4331 82.8221 53.4059 82.5614 53.3809C82.3397 53.3599 82.0964 53.3411 81.8313 53.3243C81.5705 53.3076 81.325 53.2993 81.0947 53.2993V54.2338ZM88.5648 53.5439C88.6517 53.5564 88.7386 53.5669 88.8255 53.5753C88.9169 53.5794 89.0037 53.5816 89.0863 53.5816C89.6296 53.5816 90.0402 53.4414 90.3184 53.1613C90.6008 52.8811 90.7421 52.4609 90.7421 51.9005C90.7421 51.4406 90.6291 51.0767 90.4031 50.8091C90.1815 50.5415 89.8534 50.4076 89.4187 50.4076C89.2797 50.4076 89.1558 50.414 89.0473 50.4265C88.9429 50.4348 88.8538 50.4453 88.7799 50.4579C88.6974 50.4746 88.6256 50.4913 88.5648 50.5081V53.5439ZM89.5622 53.9516C89.4753 53.9642 89.3884 53.9725 89.3015 53.9767C89.2189 53.9767 89.1341 53.9767 89.0473 53.9767C88.9777 53.9767 88.9016 53.9747 88.8191 53.9704C88.7365 53.9662 88.6517 53.96 88.5648 53.9516V54.259C88.5648 54.6311 88.5692 54.9573 88.5779 55.2374C88.5865 55.5134 88.5974 55.7518 88.6105 55.9525C88.6278 56.1532 88.6474 56.3226 88.6691 56.4606C88.6908 56.5944 88.7169 56.7052 88.7473 56.7931V56.8181H87.2415V56.7931C87.2719 56.7052 87.298 56.5924 87.3197 56.4544C87.3458 56.3163 87.3653 56.1469 87.3784 55.9462C87.3958 55.7413 87.4088 55.4988 87.4175 55.2187C87.4261 54.9384 87.4305 54.6102 87.4305 54.2338V52.6532C87.4305 52.2768 87.4261 51.9507 87.4175 51.6747C87.4088 51.3945 87.3958 51.1541 87.3784 50.9534C87.3653 50.7485 87.3458 50.577 87.3197 50.439C87.298 50.301 87.2719 50.1881 87.2415 50.1003V50.0753C87.311 50.0794 87.3849 50.0836 87.4631 50.0878C87.5283 50.092 87.6 50.0961 87.6782 50.1003C87.7608 50.1003 87.8434 50.1003 87.9259 50.1003C88.065 50.1003 88.2715 50.0878 88.5453 50.0627C88.8191 50.0376 89.1406 50.0251 89.5101 50.0251C89.8838 50.0251 90.2228 50.0689 90.527 50.1567C90.8356 50.2446 91.0985 50.3701 91.3158 50.5331C91.5374 50.6961 91.7069 50.8948 91.8242 51.129C91.9459 51.3632 92.0068 51.6245 92.0068 51.9131C92.0068 52.1389 91.9742 52.3459 91.909 52.534C91.8438 52.718 91.7526 52.8853 91.6352 53.0358C91.5179 53.1822 91.3788 53.3118 91.218 53.4247C91.0572 53.5376 90.879 53.6358 90.6835 53.7196L92.0459 55.5699C92.1632 55.7204 92.2806 55.8647 92.3979 56.0027C92.5195 56.1407 92.6348 56.264 92.7434 56.3728C92.8521 56.4815 92.9542 56.5735 93.0498 56.6488C93.1454 56.7199 93.2258 56.7679 93.291 56.7931V56.8181H91.5831C91.5831 56.7804 91.5549 56.7157 91.4983 56.6237C91.4462 56.5275 91.3832 56.4292 91.3093 56.3289C91.2398 56.2243 91.168 56.124 91.0941 56.0278C91.0246 55.9316 90.9724 55.8606 90.9377 55.8145L89.5622 53.9516ZM101.472 52.6281C101.472 52.256 101.47 51.9318 101.465 51.6559C101.461 51.3799 101.452 51.1416 101.439 50.9409C101.426 50.7401 101.411 50.5728 101.393 50.439C101.376 50.301 101.354 50.1881 101.328 50.1003V50.0753H102.287V50.1003C102.26 50.1881 102.239 50.301 102.221 50.439C102.204 50.577 102.189 50.7485 102.176 50.9534C102.163 51.1541 102.154 51.3945 102.15 51.6747C102.145 51.9507 102.143 52.2768 102.143 52.6532V54.4534C102.143 54.905 102.069 55.2898 101.921 55.6075C101.778 55.9253 101.578 56.1867 101.322 56.3916C101.065 56.5924 100.759 56.7387 100.403 56.8306C100.051 56.9269 99.6639 56.975 99.2422 56.975C98.8163 56.975 98.4209 56.9289 98.0558 56.837C97.6907 56.7491 97.3735 56.6069 97.1041 56.4104C96.839 56.2138 96.6281 55.9588 96.4717 55.6452C96.3196 55.3315 96.2435 54.9511 96.2435 54.5036V52.6532C96.2435 52.2768 96.2392 51.9507 96.2305 51.6747C96.2218 51.3945 96.2088 51.1541 96.1914 50.9534C96.174 50.7485 96.1545 50.577 96.1327 50.439C96.111 50.301 96.085 50.1881 96.0545 50.1003V50.0753H97.5603V50.1003C97.53 50.1881 97.5038 50.301 97.4821 50.439C97.4604 50.5728 97.4408 50.7401 97.4235 50.9409C97.4105 51.1416 97.3996 51.3799 97.3909 51.6559C97.3822 51.9318 97.3779 52.256 97.3779 52.6281V54.5036C97.3779 54.8757 97.4365 55.1831 97.5539 55.4256C97.6711 55.664 97.8255 55.8542 98.0167 55.9964C98.208 56.1386 98.4252 56.239 98.6686 56.2975C98.912 56.3519 99.1619 56.379 99.4182 56.379C99.679 56.379 99.9311 56.3519 100.174 56.2975C100.422 56.239 100.642 56.1386 100.833 55.9964C101.028 55.8542 101.183 55.664 101.296 55.4256C101.413 55.1831 101.472 54.8757 101.472 54.5036V52.6281ZM106.426 52.6532C106.426 52.2768 106.422 51.9507 106.413 51.6747C106.404 51.3945 106.39 51.1541 106.374 50.9534C106.36 50.7485 106.34 50.577 106.315 50.439C106.292 50.301 106.267 50.1881 106.237 50.1003V50.0753H107.749V50.1003C107.719 50.1881 107.69 50.301 107.664 50.439C107.642 50.577 107.623 50.7485 107.605 50.9534C107.592 51.1541 107.582 51.3945 107.573 51.6747C107.564 51.9507 107.56 52.2768 107.56 52.6532V54.2338C107.56 54.6102 107.564 54.9384 107.573 55.2187C107.582 55.4988 107.592 55.7413 107.605 55.9462C107.623 56.1469 107.642 56.3163 107.664 56.4544C107.69 56.5924 107.719 56.7052 107.749 56.7931V56.8181H106.237V56.7931C106.267 56.7052 106.292 56.5924 106.315 56.4544C106.34 56.3163 106.36 56.1469 106.374 55.9462C106.39 55.7413 106.404 55.4988 106.413 55.2187C106.422 54.9384 106.426 54.6102 106.426 54.2338V52.6532ZM113.556 50.5394C113.161 50.5394 112.801 50.5561 112.475 50.5895C112.153 50.623 111.875 50.6586 111.641 50.6961C111.37 50.7422 111.128 50.7924 110.91 50.8468L111.041 50.0376C111.105 50.0459 111.212 50.0522 111.36 50.0564C111.507 50.0606 111.662 50.0648 111.823 50.0689C111.988 50.0689 112.142 50.0711 112.286 50.0753C112.434 50.0753 112.535 50.0753 112.592 50.0753H115.676C115.727 50.0753 115.823 50.0753 115.962 50.0753C116.105 50.0711 116.258 50.0689 116.419 50.0689C116.579 50.0648 116.734 50.0606 116.882 50.0564C117.029 50.0522 117.136 50.0459 117.201 50.0376L117.331 50.8468C117.122 50.7924 116.884 50.7422 116.614 50.6961C116.383 50.6586 116.105 50.623 115.779 50.5895C115.458 50.5561 115.095 50.5394 114.691 50.5394V54.2338C114.691 54.6102 114.696 54.9384 114.705 55.2187C114.712 55.4988 114.723 55.7413 114.737 55.9462C114.754 56.1469 114.774 56.3163 114.796 56.4544C114.817 56.5924 114.844 56.7052 114.874 56.7931V56.8181H113.367V56.7931C113.398 56.7052 113.424 56.5924 113.446 56.4544C113.467 56.3163 113.487 56.1469 113.504 55.9462C113.522 55.7413 113.535 55.4988 113.544 55.2187C113.552 54.9384 113.556 54.6102 113.556 54.2338V50.5394ZM123.569 51.3862H123.439C123.413 51.3151 123.369 51.2252 123.308 51.1164C123.252 51.0078 123.173 50.9011 123.074 50.7966C122.979 50.692 122.859 50.6042 122.715 50.5331C122.571 50.4579 122.4 50.4202 122.2 50.4202C122.049 50.4202 121.912 50.4453 121.789 50.4955C121.673 50.5415 121.572 50.6063 121.49 50.6899C121.407 50.7735 121.344 50.874 121.301 50.991C121.258 51.1039 121.235 51.2272 121.235 51.361C121.235 51.5786 121.303 51.7855 121.438 51.982C121.577 52.1786 121.748 52.3751 121.953 52.5717C122.156 52.764 122.379 52.9584 122.617 53.155C122.856 53.3515 123.078 53.5564 123.282 53.7697C123.487 53.983 123.656 54.2088 123.791 54.4472C123.93 54.6855 124 54.9406 124 55.2124C124 55.4131 123.96 55.6201 123.882 55.8334C123.809 56.0466 123.686 56.239 123.517 56.4104C123.348 56.5819 123.13 56.722 122.865 56.8306C122.6 56.9436 122.279 57 121.901 57C121.691 57 121.492 56.9833 121.301 56.9498C121.114 56.9164 120.94 56.8745 120.779 56.8244C120.622 56.7784 120.481 56.7282 120.355 56.6738C120.234 56.6153 120.132 56.561 120.049 56.5108L120.166 55.3253H120.303C120.346 55.4716 120.41 55.618 120.492 55.7643C120.579 55.9107 120.683 56.0445 120.805 56.1658C120.932 56.2829 121.077 56.379 121.242 56.4544C121.411 56.5254 121.605 56.561 121.823 56.561C121.974 56.561 122.118 56.538 122.252 56.4919C122.387 56.4417 122.502 56.3728 122.598 56.285C122.698 56.1971 122.776 56.0905 122.833 55.965C122.89 55.8354 122.917 55.6912 122.917 55.5322C122.917 55.344 122.879 55.1705 122.8 55.0117C122.722 54.8486 122.617 54.6938 122.487 54.5475C122.357 54.397 122.209 54.2527 122.044 54.1147C121.883 53.9767 121.716 53.8366 121.542 53.6944C121.368 53.5522 121.199 53.408 121.034 53.2616C120.873 53.1111 120.727 52.9501 120.597 52.7787C120.467 52.6072 120.362 52.4253 120.284 52.233C120.205 52.0364 120.166 51.821 120.166 51.5869C120.166 51.3402 120.221 51.1186 120.33 50.922C120.438 50.7255 120.581 50.5603 120.759 50.4265C120.938 50.2885 121.142 50.1839 121.372 50.1128C121.602 50.0376 121.842 50 122.09 50C122.272 50 122.441 50.0125 122.598 50.0376C122.758 50.0627 122.902 50.0941 123.029 50.1317C123.159 50.1652 123.271 50.2007 123.367 50.2383C123.463 50.2718 123.541 50.299 123.602 50.3199L123.569 51.3862Z" fill="#BC5D1D"/>
<path d="M10 15.9397V4H150V16" stroke="#FEB302" stroke-opacity="0.7" stroke-width="7" stroke-linecap="round"/>
<path d="M10 43V53H26" stroke="#FEB302" stroke-opacity="0.7" stroke-width="7" stroke-linecap="round"/>
<path d="M151 44V53H129" stroke="#FEB302" stroke-opacity="0.7" stroke-width="7"/>
</g>
<defs>
<filter id="filter0_d_27_2689" x="0" y="0.5" width="163" height="64.5" filterUnits="userSpaceOnUse" color-interpolation-filters="sRGB">
<feFlood flood-opacity="0" result="BackgroundImageFix"/>
<feColorMatrix in="SourceAlpha" type="matrix" values="0 0 0 0 0 0 0 0 0 0 0 0 0 0 0 0 0 0 127 0" result="hardAlpha"/>
<feOffset dy="4"/>
<feGaussianBlur stdDeviation="2"/>
<feComposite in2="hardAlpha" operator="out"/>
<feColorMatrix type="matrix" values="0 0 0 0 0 0 0 0 0 0 0 0 0 0 0 0 0 0 0.25 0"/>
<feBlend mode="normal" in2="BackgroundImageFix" result="effect1_dropShadow_27_2689"/>
<feBlend mode="normal" in="SourceGraphic" in2="effect1_dropShadow_27_2689" result="shape"/>
</filter>
</defs>
</svg>
